<?xml version="1.0" encoding="utf-8"?>
<!-- Generator: Adobe Illustrator 16.0.0, SVG Export Plug-In . SVG Version: 6.00 Build 0)  -->
<!DOCTYPE svg PUBLIC "-//W3C//DTD SVG 1.1//EN" "http://www.w3.org/Graphics/SVG/1.1/DTD/svg11.dtd">
<svg version="1.1" id="Layer_1" xmlns="http://www.w3.org/2000/svg" xmlns:xlink="http://www.w3.org/1999/xlink" x="0px" y="0px"
	 width="420.5px" height="125.8px" viewBox="0 0 420.5 125.8" enable-background="new 0 0 420.5 125.8" xml:space="preserve">
<g>
	<polyline opacity="0.2" points="141.6,102.9 139.8,102.9 139.8,119.9 141.6,119.9 141.6,102.9 	"/>
	<path opacity="0.2" d="M151.1,118.6c-1.2,0-2.1-0.399-2.7-1.2c-0.6-0.8-0.9-2-0.9-3.5s0.3-2.699,0.9-3.5
		c0.6-0.8,1.5-1.199,2.7-1.199c1.2,0,2.1,0.399,2.7,1.199c0.6,0.801,0.9,2,0.9,3.5s-0.3,2.7-0.9,3.5
		C153.2,118.201,152.3,118.6,151.1,118.6 M151.2,107.6c-1.8,0-3.1,0.5-4.1,1.601c-1,1.1-1.5,2.6-1.5,4.6c0,1.3,0.2,2.4,0.7,3.3
		c0.4,1,1.1,1.7,1.9,2.2c0.9,0.5,1.8,0.8,2.9,0.8c1.8,0,3.1-0.5,4.1-1.601c1-1.1,1.5-2.6,1.5-4.6c0-1.9-0.5-3.5-1.5-4.6
		S152.9,107.6,151.2,107.6"/>
	<path opacity="0.2" d="M165.5,118.6c-1.2,0-2.1-0.399-2.7-1.2c-0.6-0.8-0.9-2-0.9-3.5s0.3-2.699,0.9-3.5
		c0.6-0.8,1.5-1.199,2.7-1.199s2.1,0.399,2.7,1.199c0.6,0.801,0.9,2,0.9,3.5s-0.3,2.7-0.9,3.5
		C167.6,118.201,166.7,118.6,165.5,118.6 M165.6,107.6c-1.8,0-3.1,0.5-4.1,1.601c-1,1.1-1.5,2.6-1.5,4.6c0,1.3,0.2,2.4,0.7,3.3
		c0.4,1,1.1,1.7,1.9,2.2c0.9,0.5,1.8,0.8,2.9,0.8c1.8,0,3.1-0.5,4.1-1.601c1-1.1,1.5-2.6,1.5-4.6c0-1.9-0.5-3.4-1.5-4.6
		C168.6,108.201,167.3,107.6,165.6,107.6"/>
	<path opacity="0.2" d="M176.9,102.9h-1.8v17h1.8v-4.5l1.4-1.199l4.2,5.699h2.2l-5.2-6.9l4.9-5.1h-2.2l-3.9,4.1
		c-0.6,0.801-1.1,1.4-1.4,1.801c0-0.9,0-1.5,0-1.9V102.9"/>
	<path opacity="0.2" d="M196.4,105h-1.1l-0.8,2.601l-1.7,0.8v0.9h1.7v7.1c0,2.5,1.2,3.7,3.5,3.7c0.3,0,0.6,0,1-0.101
		c0.4,0,0.7-0.1,0.9-0.199v-1.4c-0.2,0-0.4,0.1-0.7,0.1c-0.3,0.101-0.6,0.101-0.9,0.101c-0.6,0-1.1-0.101-1.4-0.601
		c-0.3-0.399-0.5-1-0.5-1.699v-7.1h3.5v-1.4h-3.5V105"/>
	<path opacity="0.2" d="M208,118.6c-1.2,0-2.1-0.399-2.7-1.2c-0.6-0.8-0.9-2-0.9-3.5s0.3-2.699,0.9-3.5c0.6-0.8,1.5-1.199,2.7-1.199
		s2.1,0.399,2.7,1.199c0.6,0.801,0.899,2,0.899,3.5s-0.3,2.7-0.899,3.5C210.1,118.201,209.2,118.6,208,118.6 M208,107.6
		c-1.8,0-3.1,0.5-4.1,1.601c-1,1.1-1.5,2.6-1.5,4.6c0,1.3,0.2,2.4,0.7,3.3c0.4,1,1.1,1.7,1.9,2.2c0.9,0.5,1.8,0.8,2.9,0.8
		c1.8,0,3.1-0.5,4.1-1.601c1-1.1,1.5-2.6,1.5-4.6c0-1.9-0.5-3.4-1.5-4.6C211,108.201,209.7,107.6,208,107.6"/>
	<path opacity="0.2" d="M233.7,107.9h-1.9c-1.7,4.6-2.7,7.4-3,8.301c-0.3,0.899-0.5,1.5-0.6,1.899H228.1
		c-0.199-0.7-0.5-1.8-1.1-3.399l-2.6-6.801h-2l4.899,12l-0.7,1.7c-0.6,1.399-1.5,2.101-2.699,2.101c-0.4,0-0.9,0-1.301-0.101v1.5
		c0.5,0.101,1,0.2,1.601,0.2c1,0,1.8-0.2,2.5-0.801c0.7-0.6,1.3-1.6,1.8-2.899L233.7,107.9"/>
	<path opacity="0.2" d="M241.2,118.6c-1.2,0-2.101-0.399-2.7-1.2c-0.6-0.8-0.9-2-0.9-3.5s0.301-2.699,0.9-3.5
		c0.6-0.8,1.5-1.199,2.7-1.199s2.1,0.399,2.7,1.199c0.6,0.801,0.899,2,0.899,3.5s-0.3,2.7-0.899,3.5
		C243.3,118.201,242.4,118.6,241.2,118.6 M241.3,107.6c-1.8,0-3.1,0.5-4.1,1.601c-1,1.1-1.5,2.6-1.5,4.6c0,1.3,0.2,2.4,0.7,3.3
		c0.399,1,1.1,1.7,1.899,2.2c0.9,0.5,1.8,0.8,2.9,0.8c1.8,0,3.1-0.5,4.1-1.601c1-1.1,1.5-2.6,1.5-4.6c0-1.9-0.5-3.4-1.5-4.6
		C244.3,108.201,243,107.6,241.3,107.6"/>
	<path opacity="0.2" d="M252.5,107.9v0.1V107.9 M260.8,107.9H259v6.301c0,1.6-0.3,2.699-0.9,3.399c-0.6,0.7-1.5,1-2.8,1
		c-1,0-1.6-0.2-2.1-0.7s-0.7-1.199-0.7-2.199V108h-1.8v7.9c0,1.5,0.399,2.6,1.1,3.301c0.7,0.699,1.8,1,3.3,1
		c0.9,0,1.601-0.201,2.301-0.5c0.6-0.4,1.1-0.801,1.5-1.4h0.1l0.3,1.6h1.5V107.9"/>
	<path opacity="0.2" d="M270.9,107.701c-0.7,0-1.5,0.1-2.101,0.5c-0.6,0.399-1.2,1-1.6,1.799H267.1L266.9,107.8h-1.5v12h1.8v-6.4
		c0-1.1,0.3-2.1,1-2.9c0.7-0.799,1.5-1.199,2.5-1.199c0.399,0,0.8,0.1,1.3,0.199l0.3-1.699
		C271.9,107.701,271.4,107.701,270.9,107.701"/>
	<path opacity="0.2" d="M286.5,102.701c-2.6,0-3.9,1.5-3.9,4.399v0.7l-2.1,0.699v0.801h2.1v10.6h1.801v-10.6h3.1V108h-3.1v-0.799
		c0-1,0.199-1.701,0.5-2.201c0.3-0.5,0.8-0.699,1.5-0.699c0.5,0,1.1,0.1,1.8,0.3l0.5-1.5C287.9,102.8,287.1,102.701,286.5,102.701"
		/>
	<path opacity="0.2" d="M296.1,107.701c-0.8,0-1.5,0.1-2.1,0.5c-0.6,0.399-1.2,1-1.6,1.799H292.3l-0.2-2.199h-1.5v12h1.801v-6.4
		c0-1.1,0.3-2.1,1-2.9c0.699-0.799,1.5-1.199,2.5-1.199c0.399,0,0.8,0.1,1.3,0.199l0.3-1.699
		C297.1,107.701,296.6,107.701,296.1,107.701"/>
	<path opacity="0.2" d="M302.4,107.9H300.6v12h1.801V107.9 M301.5,103.5c-0.3,0-0.6,0.101-0.8,0.301c-0.2,0.199-0.3,0.5-0.3,0.9
		c0,0.399,0.1,0.699,0.3,0.899s0.5,0.3,0.8,0.3s0.6-0.1,0.8-0.3s0.3-0.5,0.3-0.899c0-0.4,0-0.701-0.3-0.9
		C302,103.6,301.8,103.5,301.5,103.5"/>
	<path opacity="0.2" d="M308.4,112.701c0.1-1.101,0.399-2,1-2.601c0.6-0.601,1.3-0.899,2.3-0.899c0.899,0,1.7,0.299,2.2,0.899
		s0.8,1.5,0.8,2.601H308.4 M311.7,107.701c-1.601,0-2.8,0.6-3.8,1.699c-0.9,1.1-1.4,2.7-1.4,4.6c0,1.9,0.5,3.4,1.5,4.5
		c1,1.101,2.4,1.601,4.2,1.601c0.8,0,1.6,0,2.1-0.101c0.5-0.1,1.2-0.299,1.8-0.6v-1.6c-1.199,0.5-2.5,0.8-3.8,0.8
		s-2.2-0.399-2.899-1.101c-0.7-0.699-1.101-1.799-1.101-3.199h8.3v-1.2c0-1.601-0.399-2.899-1.3-3.899
		C314.4,108.201,313.2,107.701,311.7,107.701"/>
	<path opacity="0.2" d="M328.8,119.701L328.8,119.701v0.199V119.701 M326.2,107.6c-0.8,0-1.5,0.2-2.2,0.5
		c-0.7,0.399-1.2,0.8-1.6,1.399H322.3l-0.3-1.6h-1.5v12h1.8v-6.3c0-1.601,0.3-2.7,0.9-3.399c0.6-0.701,1.5-1,2.8-1
		c1,0,1.7,0.199,2.1,0.699c0.5,0.5,0.7,1.2,0.7,2.2v7.601h1.8V111.9c0-1.5-0.3-2.6-1.1-3.3S327.6,107.6,326.2,107.6"/>
	<path opacity="0.2" d="M339.7,118.6c-1.101,0-1.9-0.399-2.4-1.101c-0.5-0.799-0.8-2-0.8-3.5s0.2-2.699,0.8-3.5
		c0.5-0.799,1.3-1.199,2.4-1.199c1.2,0,2.1,0.4,2.7,1.1c0.5,0.7,0.8,1.9,0.8,3.6v0.301c0,1.5-0.2,2.6-0.8,3.3
		C341.8,118.3,340.9,118.6,339.7,118.6 M344.9,102.9H343.1v4.9v0.8l0.101,0.899H343.1c-0.8-1.199-2.1-1.799-3.699-1.799
		c-1.601,0-2.801,0.5-3.7,1.6c-0.9,1.1-1.3,2.6-1.3,4.6s0.399,3.5,1.3,4.6c0.899,1.101,2.1,1.601,3.7,1.601
		c1.699,0,3-0.601,3.899-1.8l0.101,1.6h1.5V102.9"/>
	<path opacity="0.2" d="M353.6,107.701c-1.399,0-2.5,0.199-3.3,0.799c-0.8,0.5-1.2,1.301-1.2,2.301c0,0.5,0.101,1,0.301,1.4
		c0.3,0.399,0.6,0.799,1.1,1.1c0.5,0.3,1.3,0.699,2.4,1.1c1.199,0.5,2,0.9,2.399,1.2c0.4,0.3,0.601,0.7,0.601,1.2
		c0,0.6-0.301,1.1-0.801,1.4c-0.5,0.299-1.3,0.5-2.199,0.5c-0.601,0-1.2-0.101-1.9-0.301c-0.7-0.199-1.3-0.4-1.9-0.699v1.699
		c0.9,0.5,2.101,0.801,3.7,0.801c1.5,0,2.7-0.301,3.5-0.9s1.2-1.5,1.2-2.6c0-0.801-0.2-1.5-0.6-2c-0.5-0.601-1.5-1.101-2.9-1.601
		c-1-0.399-1.7-0.7-2.1-0.899c-0.4-0.201-0.601-0.4-0.801-0.601c-0.1-0.2-0.199-0.5-0.199-0.8c0-0.5,0.3-0.801,0.699-1.1
		c0.4-0.301,1-0.4,1.9-0.4c1,0,2.1,0.199,3.3,0.699l0.601-1.5C356.2,108,354.9,107.701,353.6,107.701"/>
	<path opacity="0.2" d="M154.9,18.8c-12,0-16.1,5-16.1,20.9v2.4h-5.9v12.6h5.9v42.5h14.8V54.7h13.3V42.1h-13.3v-2.3
		c0-5.6,1.1-7.8,5.3-7.8c3.6,0,8.4,0.2,8.4,0.2l0.2-12C167.5,20.2,158.5,18.8,154.9,18.8"/>
	<path opacity="0.2" d="M192.1,86.5c-4,0-5.4-2.6-5.4-6.5c0-4,2.3-5.899,6.2-6.199l10-0.9v11.801
		C202.9,84.701,196.8,86.5,192.1,86.5 M197.6,40.8c-10.5,0-22.3,3.2-22.3,3.2l0.5,10.3c0,0,13.4-0.9,20.7-0.9c4.4,0,6.5,1.2,6.5,5.9
		v3.4l-11.8,0.9c-12.1,0.8-19.3,4.399-19.3,16.8c0,11.7,5.5,18.1,17.1,18.1c8.3,0,16.2-3.899,16.2-3.899
		c4.6,3.101,8.3,3.899,15.7,3.899l0.399-11.1c-2.899-0.6-3.399-1.9-3.6-5.199H217.6V59.3C217.6,46.4,211.9,40.8,197.6,40.8"/>
	<path opacity="0.2" d="M252.4,40.8c-16.4,0-23.2,8.8-23.2,28.3c0,20.7,6.5,29.399,22.899,29.399c6.101,0,17.9-2.299,17.9-2.299
		L269.6,84.4c0,0-8.6,0.9-12.8,0.9c-10.6,0-12.7-3.9-12.7-16.2c0-11,2-15.1,12.601-15.1c4.2,0,12.899,0.9,12.899,0.9l0.4-11.7
		C270,43.2,258.7,40.8,252.4,40.8"/>
	<polyline opacity="0.2" points="295.7,42.1 280.9,42.1 280.9,97.1 295.7,97.1 295.7,42.1 	"/>
	<path opacity="0.2" d="M337.7,40.9c-6.3,0-13.8,4.4-13.8,4.4v-3.1H309.3v55H324V56c0,0,4.8-2,10-2c7.2,0,8.3,5.4,8.3,13.8v29.4
		h14.8V67.4C357.1,50.6,353.1,40.9,337.7,40.9"/>
	<path opacity="0.2" d="M394,110.4c-8.2,0-12.1-1.5-12.1-4.699c0-2.801,1.1-4.4,3-6.301c0,0,6.8,0.7,9.899,0.801
		c8.101,0.1,10.3,0.5,10.3,4.699C405.1,108.9,401.2,110.4,394,110.4 M391.2,68.6c-6,0-8.5-2.899-8.5-8.1c0-5.1,2.6-8,8.5-8
		c6,0,8.399,2.8,8.399,8C399.6,65.701,397.2,68.6,391.2,68.6 M391.1,41C378.2,41,368,46.3,368,60.5c0,9.6,3.6,13.6,7.5,16.4
		c0,0-4.3,6-4.3,8.801c0,3.399,1.7,6.699,4.1,8.399c-5.5,4.3-7.899,8-7.899,13.101c0,12.104,10.072,15.201,25.645,15.201
		c0.25,0,0.502,0,0.755-0.002c14.2,0,26.101-5.1,26.101-18.5c0-12.3-5.301-16.5-24-16.6c-9.4-0.1-10.7-0.7-10.7-3.6
		c0-1.4,1.1-4.301,1.1-4.301c1,0.2,3.3,0.4,4.5,0.4c15.101,0,23.2-4,23.2-19.4c0-3.2-1.4-6-2.4-7.5l8.301,0.7V41.8l-17.7,0.6
		C402.2,42.4,395.9,41,391.1,41"/>
	<path opacity="0.2" d="M288.3,19.7c-4.418,0-8,3.582-8,8c0,4.418,3.582,8,8,8c4.419,0,8-3.582,8-8
		C296.3,23.282,292.719,19.7,288.3,19.7"/>
	<rect x="137.8" y="100.9" fill="#FFFFFF" width="1.8" height="17"/>
	<path fill="#FFFFFF" d="M154.7,111.9c0,2-0.5,3.5-1.5,4.6c-1,1.101-2.3,1.601-4.1,1.601c-1.1,0-2-0.3-2.9-0.8
		c-0.8-0.5-1.5-1.2-1.9-2.2c-0.5-0.899-0.7-2-0.7-3.3c0-2,0.5-3.5,1.5-4.6c1-1.101,2.3-1.601,4.1-1.601c1.7,0,3,0.601,4,1.7
		S154.7,110,154.7,111.9z M145.5,111.9c0,1.5,0.3,2.7,0.9,3.5c0.6,0.801,1.5,1.2,2.7,1.2c1.2,0,2.1-0.399,2.7-1.2
		c0.6-0.8,0.9-2,0.9-3.5s-0.3-2.699-0.9-3.5c-0.6-0.8-1.5-1.199-2.7-1.199c-1.2,0-2.1,0.399-2.7,1.199
		C145.8,109.201,145.5,110.4,145.5,111.9z"/>
	<path fill="#FFFFFF" d="M169.1,111.9c0,2-0.5,3.5-1.5,4.6c-1,1.101-2.3,1.601-4.1,1.601c-1.1,0-2-0.3-2.9-0.8
		c-0.8-0.5-1.5-1.2-1.9-2.2c-0.5-0.899-0.7-2-0.7-3.3c0-2,0.5-3.5,1.5-4.6c1-1.101,2.3-1.601,4.1-1.601c1.7,0,3,0.601,4,1.7
		C168.6,108.5,169.1,110,169.1,111.9z M159.9,111.9c0,1.5,0.3,2.7,0.9,3.5c0.6,0.801,1.5,1.2,2.7,1.2s2.1-0.399,2.7-1.2
		c0.6-0.8,0.9-2,0.9-3.5s-0.3-2.699-0.9-3.5c-0.6-0.8-1.5-1.199-2.7-1.199s-2.1,0.399-2.7,1.199
		C160.2,109.201,159.9,110.4,159.9,111.9z"/>
	<path fill="#FFFFFF" d="M174.9,111.8c0.3-0.4,0.8-1,1.4-1.801l3.9-4.1h2.2l-4.9,5.1l5.2,6.9h-2.2l-4.2-5.699l-1.4,1.199v4.5h-1.8
		v-17h1.8v9C174.9,110.3,174.9,110.9,174.9,111.8z"/>
	<path fill="#FFFFFF" d="M196.3,116.6c0.3,0,0.6,0,0.9-0.101c0.3,0,0.5-0.1,0.7-0.1v1.4c-0.2,0.1-0.5,0.199-0.9,0.199
		c-0.4,0.101-0.7,0.101-1,0.101c-2.3,0-3.5-1.2-3.5-3.7v-7.1h-1.7v-0.9l1.7-0.8l0.8-2.601h1.1v2.801h3.5v1.4h-3.5v7.1
		c0,0.699,0.2,1.3,0.5,1.699C195.2,116.5,195.7,116.6,196.3,116.6z"/>
	<path fill="#FFFFFF" d="M211.5,111.9c0,2-0.5,3.5-1.5,4.6c-1,1.101-2.3,1.601-4.1,1.601c-1.1,0-2-0.3-2.9-0.8
		c-0.8-0.5-1.5-1.2-1.9-2.2c-0.5-0.899-0.7-2-0.7-3.3c0-2,0.5-3.5,1.5-4.6c1-1.101,2.3-1.601,4.1-1.601c1.7,0,3,0.601,4,1.7
		C211,108.5,211.5,110,211.5,111.9z M202.4,111.9c0,1.5,0.3,2.7,0.9,3.5c0.6,0.801,1.5,1.2,2.7,1.2s2.1-0.399,2.7-1.2
		c0.6-0.8,0.9-2,0.9-3.5s-0.3-2.699-0.9-3.5c-0.6-0.8-1.5-1.199-2.7-1.199s-2.1,0.399-2.7,1.199
		C202.7,109.201,202.4,110.4,202.4,111.9z"/>
	<path fill="#FFFFFF" d="M220.4,105.9h2l2.6,6.801c0.6,1.6,0.9,2.699,1.1,3.399h0.101c0.1-0.399,0.3-1,0.6-1.899
		c0.3-0.9,1.3-3.701,3-8.301h1.9l-5.2,13.7c-0.5,1.3-1.1,2.3-1.8,2.899c-0.7,0.601-1.5,0.801-2.5,0.801
		c-0.601,0-1.101-0.1-1.601-0.2v-1.5c0.4,0.101,0.9,0.101,1.301,0.101c1.199,0,2.1-0.701,2.699-2.101l0.7-1.7L220.4,105.9z"/>
	<path fill="#FFFFFF" d="M244.8,111.9c0,2-0.5,3.5-1.5,4.6c-1,1.101-2.3,1.601-4.1,1.601c-1.101,0-2-0.3-2.9-0.8
		c-0.8-0.5-1.5-1.2-1.899-2.2c-0.5-0.899-0.7-2-0.7-3.3c0-2,0.5-3.5,1.5-4.6c1-1.101,2.3-1.601,4.1-1.601c1.7,0,3,0.601,4,1.7
		C244.3,108.5,244.8,110,244.8,111.9z M235.6,111.9c0,1.5,0.301,2.7,0.9,3.5c0.6,0.801,1.5,1.2,2.7,1.2s2.1-0.399,2.7-1.2
		c0.6-0.8,0.899-2,0.899-3.5s-0.3-2.699-0.899-3.5c-0.601-0.8-1.5-1.199-2.7-1.199s-2.101,0.399-2.7,1.199
		C235.9,109.201,235.6,110.4,235.6,111.9z"/>
	<path fill="#FFFFFF" d="M250.5,105.9v7.801c0,1,0.2,1.699,0.7,2.199s1.1,0.7,2.1,0.7c1.3,0,2.2-0.3,2.8-1
		c0.601-0.7,0.9-1.8,0.9-3.399V105.9h1.8v12h-1.5l-0.3-1.6h-0.1c-0.4,0.6-0.9,1-1.5,1.4c-0.7,0.299-1.4,0.5-2.301,0.5
		c-1.5,0-2.6-0.301-3.3-1c-0.7-0.701-1.1-1.801-1.1-3.301V106h1.8V105.9z"/>
	<path fill="#FFFFFF" d="M268.9,105.701c0.5,0,1,0,1.399,0.1L270,107.5c-0.5-0.1-0.9-0.199-1.3-0.199c-1,0-1.8,0.4-2.5,1.199
		c-0.7,0.801-1,1.801-1,2.9v6.4h-1.8v-12h1.5L265.1,108h0.101c0.399-0.799,1-1.399,1.6-1.799
		C267.4,105.8,268.2,105.701,268.9,105.701z"/>
	<path fill="#FFFFFF" d="M285.5,107.3h-3.1v10.6H280.6v-10.6h-2.1V106.5l2.1-0.699v-0.7c0-2.899,1.301-4.399,3.9-4.399
		c0.6,0,1.4,0.1,2.2,0.399l-0.5,1.5c-0.7-0.2-1.3-0.3-1.8-0.3c-0.7,0-1.2,0.199-1.5,0.699c-0.301,0.5-0.5,1.201-0.5,2.201V106h3.1
		V107.3z"/>
	<path fill="#FFFFFF" d="M294.1,105.701c0.5,0,1,0,1.4,0.1l-0.3,1.699c-0.5-0.1-0.9-0.199-1.3-0.199c-1,0-1.801,0.4-2.5,1.199
		c-0.7,0.801-1,1.801-1,2.9v6.4H288.6v-12h1.5l0.2,2.199h0.101c0.399-0.799,1-1.399,1.6-1.799
		C292.6,105.8,293.3,105.701,294.1,105.701z"/>
	<path fill="#FFFFFF" d="M298.4,102.701c0-0.4,0.1-0.701,0.3-0.9c0.2-0.2,0.5-0.301,0.8-0.301s0.5,0.101,0.8,0.301
		c0.3,0.199,0.3,0.5,0.3,0.9c0,0.399-0.1,0.699-0.3,0.899s-0.5,0.3-0.8,0.3s-0.6-0.1-0.8-0.3S298.4,103.1,298.4,102.701z
		 M300.4,117.9H298.6v-12h1.801V117.9z"/>
	<path fill="#FFFFFF" d="M310.2,118.1c-1.8,0-3.2-0.5-4.2-1.601c-1-1.1-1.5-2.6-1.5-4.5c0-1.899,0.5-3.5,1.4-4.6
		c1-1.1,2.199-1.699,3.8-1.699c1.5,0,2.7,0.5,3.6,1.5c0.9,1,1.3,2.299,1.3,3.899v1.2h-8.3c0,1.4,0.4,2.5,1.101,3.199
		c0.699,0.701,1.6,1.101,2.899,1.101s2.601-0.3,3.8-0.8v1.6c-0.6,0.301-1.3,0.5-1.8,0.6C311.8,118.1,311,118.1,310.2,118.1z
		 M309.7,107.201c-1,0-1.7,0.299-2.3,0.899c-0.601,0.601-0.9,1.5-1,2.601h6.3c0-1.101-0.3-2-0.8-2.601S310.6,107.201,309.7,107.201z
		"/>
	<path fill="#FFFFFF" d="M326.8,117.9v-7.8c0-1-0.2-1.7-0.7-2.2c-0.399-0.5-1.1-0.699-2.1-0.699c-1.3,0-2.2,0.299-2.8,1
		c-0.601,0.699-0.9,1.799-0.9,3.399v6.3h-1.8v-12h1.5l0.3,1.6h0.101c0.399-0.6,0.899-1,1.6-1.399c0.7-0.3,1.4-0.5,2.2-0.5
		c1.399,0,2.5,0.3,3.3,1s1.1,1.8,1.1,3.3v7.801h-1.8V117.9z"/>
	<path fill="#FFFFFF" d="M341.3,116.3L341.3,116.3c-0.899,1.199-2.2,1.8-3.899,1.8c-1.601,0-2.801-0.5-3.7-1.601
		c-0.9-1.1-1.3-2.6-1.3-4.6s0.399-3.5,1.3-4.6c0.899-1.1,2.1-1.6,3.7-1.6c1.6,0,2.899,0.6,3.699,1.799h0.101L341.1,106.6v-0.8v-4.9
		h1.801v17h-1.5L341.3,116.3z M337.7,116.6c1.2,0,2.1-0.3,2.7-1c0.6-0.7,0.8-1.8,0.8-3.3V112c0-1.699-0.3-2.899-0.8-3.6
		c-0.601-0.699-1.5-1.1-2.7-1.1c-1.101,0-1.9,0.4-2.4,1.199c-0.6,0.801-0.8,2-0.8,3.5s0.3,2.701,0.8,3.5
		C335.8,116.201,336.6,116.6,337.7,116.6z"/>
	<path fill="#FFFFFF" d="M355.5,114.701c0,1.1-0.4,2-1.2,2.6s-2,0.9-3.5,0.9c-1.6,0-2.8-0.301-3.7-0.801v-1.699
		c0.601,0.299,1.2,0.5,1.9,0.699c0.7,0.2,1.3,0.301,1.9,0.301c0.899,0,1.699-0.201,2.199-0.5c0.5-0.301,0.801-0.801,0.801-1.4
		c0-0.5-0.2-0.9-0.601-1.2c-0.399-0.3-1.2-0.7-2.399-1.2c-1.101-0.4-1.9-0.8-2.4-1.1c-0.5-0.301-0.8-0.7-1.1-1.1
		c-0.2-0.4-0.301-0.9-0.301-1.4c0-1,0.4-1.801,1.2-2.301c0.8-0.6,1.9-0.799,3.3-0.799c1.301,0,2.601,0.299,3.801,0.799L354.8,108
		c-1.2-0.5-2.3-0.699-3.3-0.699c-0.9,0-1.5,0.1-1.9,0.4c-0.399,0.299-0.699,0.6-0.699,1.1c0,0.3,0.1,0.6,0.199,0.8
		c0.2,0.2,0.4,0.399,0.801,0.601c0.399,0.199,1.1,0.5,2.1,0.899c1.4,0.5,2.4,1,2.9,1.601C355.3,113.201,355.5,113.9,355.5,114.701z"
		/>
	<path fill="#FFFFFF" d="M151.6,95.201h-14.8V52.7h-5.9V40.1h5.9v-2.4c0-15.9,4.1-20.9,16.1-20.9c3.6,0,12.6,1.4,12.6,1.4l-0.2,12
		c0,0-4.8-0.2-8.4-0.2c-4.2,0-5.3,2.2-5.3,7.8v2.3h13.3v12.6h-13.3V95.201z"/>
	<path fill="#FFFFFF" d="M215.7,80.201c0.2,3.299,0.7,4.6,3.6,5.199L218.9,96.5c-7.4,0-11.101-0.799-15.7-3.899
		c0,0-7.9,3.899-16.2,3.899c-11.6,0-17.1-6.399-17.1-18.1c0-12.4,7.2-16,19.3-16.8l11.8-0.9v-3.4c0-4.7-2.1-5.9-6.5-5.9
		c-7.3,0-20.7,0.9-20.7,0.9L173.3,42c0,0,11.8-3.2,22.3-3.2c14.3,0,20,5.6,20,18.5v22.901H215.7z M190.9,71.8
		C187,72.1,184.7,74,184.7,78c0,3.9,1.4,6.5,5.4,6.5c4.7,0,10.8-1.799,10.8-1.799V70.9L190.9,71.8z"/>
	<path fill="#FFFFFF" d="M268,41.2l-0.4,11.7c0,0-8.699-0.9-12.899-0.9C244.1,52,242.1,56.1,242.1,67.1c0,12.3,2.101,16.2,12.7,16.2
		c4.2,0,12.8-0.9,12.8-0.9l0.4,11.801c0,0-11.8,2.299-17.9,2.299C233.7,96.5,227.2,87.8,227.2,67.1c0-19.5,6.8-28.3,23.2-28.3
		C256.7,38.8,268,41.2,268,41.2z"/>
	<rect x="278.9" y="40.1" fill="#FFFFFF" width="14.8" height="55"/>
	<path fill="#FFFFFF" d="M307.3,95.201v-55H321.9v3.1c0,0,7.5-4.4,13.8-4.4c15.399,0,19.399,9.7,19.399,26.5v29.801h-14.8V65.8
		c0-8.4-1.1-13.8-8.3-13.8c-5.2,0-10,2-10,2v41.201H307.3z"/>
	<path fill="#FFFFFF" d="M365.4,105.201c0-5.101,2.399-8.801,7.899-13.101c-2.399-1.7-4.1-5-4.1-8.399c0-2.801,4.3-8.801,4.3-8.801
		c-3.9-2.8-7.5-6.8-7.5-16.4c0-14.2,10.2-19.5,23.1-19.5c4.801,0,11.101,1.4,11.101,1.4l17.7-0.6v11.8l-8.301-0.7
		c1,1.5,2.4,4.3,2.4,7.5c0,15.4-8.1,19.4-23.2,19.4c-1.2,0-3.5-0.2-4.5-0.4c0,0-1.1,2.9-1.1,4.301c0,2.899,1.3,3.5,10.7,3.6
		c18.699,0.1,24,4.3,24,16.6c0,13.4-11.9,18.5-26.101,18.5C375.8,120.5,365.4,117.5,365.4,105.201z M382.9,97.4
		c-1.9,1.9-3,3.5-3,6.301c0,3.199,3.899,4.699,12.1,4.699c7.2,0,11.1-1.5,11.1-5.5c0-4.199-2.199-4.6-10.3-4.699
		C389.7,98.1,382.9,97.4,382.9,97.4z M397.6,58.5c0-5.2-2.399-8-8.399-8c-5.9,0-8.5,2.9-8.5,8c0,5.201,2.5,8.1,8.5,8.1
		S397.6,63.701,397.6,58.5z"/>
	<circle fill="#FFFFFF" cx="286.3" cy="25.7" r="8"/>
	<path opacity="0.2" d="M112.5,33.9c-2,3.9-5.6,6.9-10,8.1c8.8,17.1,6,38.701-8.3,53C85.6,103.6,74.1,108.3,62,108.3
		c-8.9,0-17.4-2.5-24.7-7.301L68,70.4v18.801c0,4.699,3.8,8.5,8.5,8.5s8.5-3.801,8.5-8.5V39.8H35.5c-4.7,0-8.5,3.8-8.5,8.5
		c0,4.7,3.8,8.5,8.5,8.5h18.8L14.6,96.6c1.8,2.601,3.9,5.101,6.2,7.399c11,11,25.6,17,41.1,17s30.2-6,41.1-17
		C122.1,85,125.2,56.1,112.5,33.9 M61.9,4.7c-15.5,0-30.1,6-41.1,17C2.4,40.1-1.1,67.9,10.4,89.9l9.5-9.5C13,63.9,16.3,44,29.7,30.6
		c8.6-8.6,20-13.3,32.2-13.3c7.3,0,14.4,1.7,20.8,5c1.2-4.3,4.2-7.9,8.1-9.9C82.1,7.4,72.2,4.7,61.9,4.7"/>
	<path opacity="0.2" d="M98.2,16.7c-5.468,0-9.9,4.432-9.9,9.9c0,5.467,4.433,9.9,9.9,9.9c5.467,0,9.9-4.433,9.9-9.9
		C108.1,21.132,103.667,16.7,98.2,16.7"/>
	<path fill="#FFFFFF" d="M17.9,78.4l-9.5,9.5c-11.5-22-8-49.8,10.4-68.2c11-11,25.6-17,41.1-17c10.3,0,20.2,2.7,28.9,7.7
		c-3.9,2-6.9,5.6-8.1,9.9c-6.4-3.3-13.5-5-20.8-5c-12.2,0-23.6,4.7-32.2,13.3C14.3,42,11,61.9,17.9,78.4z M110.5,31.9
		c-2,3.9-5.6,6.9-10,8.1c8.8,17.1,6,38.701-8.3,53C83.6,101.6,72.1,106.3,60,106.3c-8.9,0-17.4-2.5-24.7-7.301L66,68.4v18.801
		c0,4.699,3.8,8.5,8.5,8.5s8.5-3.801,8.5-8.5V37.8H33.5c-4.7,0-8.5,3.8-8.5,8.5c0,4.7,3.8,8.5,8.5,8.5h18.8L12.6,94.6
		c1.8,2.601,3.9,5.101,6.2,7.399c11,11,25.6,17,41.1,17s30.2-6,41.1-17C120.1,83,123.2,54.1,110.5,31.9z"/>
	<circle fill="#FFFFFF" cx="96.2" cy="24.6" r="9.9"/>
</g>
</svg>
