<?xml version="1.0" encoding="utf-8"?>
<!-- Generator: Adobe Illustrator 16.0.0, SVG Export Plug-In . SVG Version: 6.00 Build 0)  -->
<!DOCTYPE svg PUBLIC "-//W3C//DTD SVG 1.1//EN" "http://www.w3.org/Graphics/SVG/1.1/DTD/svg11.dtd">
<svg version="1.1" id="Layer_1" xmlns="http://www.w3.org/2000/svg" xmlns:xlink="http://www.w3.org/1999/xlink" x="0px" y="0px"
	 width="350px" height="350px" viewBox="0 0 350 350" enable-background="new 0 0 350 350" xml:space="preserve">
<rect opacity="0.9" fill="#5A5A5D" width="350" height="350"/>
<g>
	<path id="shape_2_" fill="#F8FBFE" d="M73.5,217.5l-22.9,22.9c-27.9-53-19.5-120.2,25-164.7c26.5-26.5,61.8-41.1,99.4-41.1
		c24.9,0,48.8,6.4,69.9,18.5c-9.5,4.9-16.7,13.6-19.6,24C209.9,69.2,192.8,65,175,65c-29.4,0-57,11.4-77.8,32.2
		C64.7,129.7,56.8,177.6,73.5,217.5z M297,105.2c-4.9,9.5-13.6,16.6-24,19.5c21.2,41.4,14.5,93.4-20.1,128
		C232,273.6,204.4,285,175,285c-21.5,0-42-6.1-59.6-17.5l74.2-74.2l0.1,45.5c0,11.3,9.2,20.5,20.5,20.5c11.3,0,20.4-9.1,20.4-20.4
		l0-119.4l-119.5,0c-11.3,0-20.4,9.1-20.4,20.4c0,11.3,9.2,20.5,20.5,20.5l45.5,0l-96.1,96.1c4.5,6.2,9.5,12.2,15.1,17.8
		c26.5,26.5,61.8,41.1,99.4,41.1c37.5,0,72.8-14.6,99.4-41.1C320.1,228.6,327.7,158.9,297,105.2z"/>
	<path id="shape_1_" fill="#F8FBFE" d="M262.6,63.6c-13.2,0-23.9,10.7-23.9,23.9c0,13.2,10.7,23.9,23.9,23.9
		c13.2,0,23.9-10.7,23.9-23.9C286.5,74.3,275.8,63.6,262.6,63.6z"/>
</g>
</svg>
