<?xml version="1.0" encoding="utf-8"?>
<!DOCTYPE svg PUBLIC "-//W3C//DTD SVG 1.1//EN" "http://www.w3.org/Graphics/SVG/1.1/DTD/svg11.dtd">
<svg version="1.1" xmlns="http://www.w3.org/2000/svg" xmlns:xlink="http://www.w3.org/1999/xlink" x="0px" y="0px" width="420.5px"
	 height="125.8px" viewBox="0 0 420.5 125.8" enable-background="new 0 0 420.5 125.8" xml:space="preserve">
<g id="FacingText">
	<path fill="#FFFFFF" d="M139.6,117.9h-1.8v-17h1.8V117.9z"/>
	<path fill="#FFFFFF" d="M154.7,111.9c0,2-0.5,3.5-1.5,4.6c-1,1.1-2.3,1.6-4.1,1.6c-1.1,0-2-0.3-2.9-0.8c-0.8-0.5-1.5-1.2-1.9-2.2
		c-0.5-0.9-0.7-2-0.7-3.3c0-2,0.5-3.5,1.5-4.6c1-1.1,2.3-1.6,4.1-1.6c1.7,0,3,0.6,4,1.7S154.7,110,154.7,111.9z M145.5,111.9
		c0,1.5,0.3,2.7,0.9,3.5s1.5,1.2,2.7,1.2c1.2,0,2.1-0.4,2.7-1.2c0.6-0.8,0.9-2,0.9-3.5c0-1.5-0.3-2.7-0.9-3.5
		c-0.6-0.8-1.5-1.2-2.7-1.2c-1.2,0-2.1,0.4-2.7,1.2C145.8,109.2,145.5,110.4,145.5,111.9z"/>
	<path fill="#FFFFFF" d="M169.1,111.9c0,2-0.5,3.5-1.5,4.6c-1,1.1-2.3,1.6-4.1,1.6c-1.1,0-2-0.3-2.9-0.8c-0.8-0.5-1.5-1.2-1.9-2.2
		c-0.5-0.9-0.7-2-0.7-3.3c0-2,0.5-3.5,1.5-4.6c1-1.1,2.3-1.6,4.1-1.6c1.7,0,3,0.6,4,1.7C168.6,108.5,169.1,110,169.1,111.9z
		 M159.9,111.9c0,1.5,0.3,2.7,0.9,3.5s1.5,1.2,2.7,1.2c1.2,0,2.1-0.4,2.7-1.2c0.6-0.8,0.9-2,0.9-3.5c0-1.5-0.3-2.7-0.9-3.5
		s-1.5-1.2-2.7-1.2c-1.2,0-2.1,0.4-2.7,1.2C160.2,109.2,159.9,110.4,159.9,111.9z"/>
	<path fill="#FFFFFF" d="M174.9,111.8c0.3-0.4,0.8-1,1.4-1.8l3.9-4.1h2.2l-4.9,5.1l5.2,6.9h-2.2l-4.2-5.7l-1.4,1.2v4.5h-1.8v-17h1.8
		v9C174.9,110.3,174.9,110.9,174.9,111.8L174.9,111.8z"/>
	<path fill="#FFFFFF" d="M196.3,116.6c0.3,0,0.6,0,0.9-0.1c0.3,0,0.5-0.1,0.7-0.1v1.4c-0.2,0.1-0.5,0.2-0.9,0.2
		c-0.4,0.1-0.7,0.1-1,0.1c-2.3,0-3.5-1.2-3.5-3.7v-7.1h-1.7v-0.9l1.7-0.8l0.8-2.6h1.1v2.8h3.5v1.4h-3.5v7.1c0,0.7,0.2,1.3,0.5,1.7
		C195.2,116.5,195.7,116.6,196.3,116.6z"/>
	<path fill="#FFFFFF" d="M211.5,111.9c0,2-0.5,3.5-1.5,4.6c-1,1.1-2.3,1.6-4.1,1.6c-1.1,0-2-0.3-2.9-0.8c-0.8-0.5-1.5-1.2-1.9-2.2
		c-0.5-0.9-0.7-2-0.7-3.3c0-2,0.5-3.5,1.5-4.6s2.3-1.6,4.1-1.6c1.7,0,3,0.6,4,1.7C211,108.5,211.5,110,211.5,111.9z M202.4,111.9
		c0,1.5,0.3,2.7,0.9,3.5s1.5,1.2,2.7,1.2c1.2,0,2.1-0.4,2.7-1.2c0.6-0.8,0.9-2,0.9-3.5c0-1.5-0.3-2.7-0.9-3.5
		c-0.6-0.8-1.5-1.2-2.7-1.2c-1.2,0-2.1,0.4-2.7,1.2C202.7,109.2,202.4,110.4,202.4,111.9z"/>
	<path fill="#FFFFFF" d="M220.4,105.9h2l2.6,6.8c0.6,1.6,0.9,2.7,1.1,3.4h0.1c0.1-0.4,0.3-1,0.6-1.9s1.3-3.7,3-8.3h1.9l-5.2,13.7
		c-0.5,1.3-1.1,2.3-1.8,2.9c-0.7,0.6-1.5,0.8-2.5,0.8c-0.6,0-1.1-0.1-1.6-0.2v-1.5c0.4,0.1,0.9,0.1,1.3,0.1c1.2,0,2.1-0.7,2.7-2.1
		l0.7-1.7L220.4,105.9z"/>
	<path fill="#FFFFFF" d="M244.8,111.9c0,2-0.5,3.5-1.5,4.6c-1,1.1-2.3,1.6-4.1,1.6c-1.1,0-2-0.3-2.9-0.8c-0.8-0.5-1.5-1.2-1.9-2.2
		c-0.5-0.9-0.7-2-0.7-3.3c0-2,0.5-3.5,1.5-4.6s2.3-1.6,4.1-1.6c1.7,0,3,0.6,4,1.7C244.3,108.5,244.8,110,244.8,111.9z M235.6,111.9
		c0,1.5,0.3,2.7,0.9,3.5s1.5,1.2,2.7,1.2c1.2,0,2.1-0.4,2.7-1.2c0.6-0.8,0.9-2,0.9-3.5c0-1.5-0.3-2.7-0.9-3.5
		c-0.6-0.8-1.5-1.2-2.7-1.2c-1.2,0-2.1,0.4-2.7,1.2C235.9,109.2,235.6,110.4,235.6,111.9z"/>
	<path fill="#FFFFFF" d="M250.5,105.9v7.8c0,1,0.2,1.7,0.7,2.2s1.1,0.7,2.1,0.7c1.3,0,2.2-0.3,2.8-1c0.6-0.7,0.9-1.8,0.9-3.4v-6.3
		h1.8v12h-1.5l-0.3-1.6h-0.1c-0.4,0.6-0.9,1-1.5,1.4c-0.7,0.3-1.4,0.5-2.3,0.5c-1.5,0-2.6-0.3-3.3-1s-1.1-1.8-1.1-3.3v-7.9H250.5z"
		/>
	<path fill="#FFFFFF" d="M268.9,105.7c0.5,0,1,0,1.4,0.1l-0.3,1.7c-0.5-0.1-0.9-0.2-1.3-0.2c-1,0-1.8,0.4-2.5,1.2
		c-0.7,0.8-1,1.8-1,2.9v6.4h-1.8v-12h1.5l0.2,2.2h0.1c0.4-0.8,1-1.4,1.6-1.8S268.2,105.7,268.9,105.7z"/>
	<path fill="#FFFFFF" d="M285.5,107.3h-3.1v10.6h-1.8v-10.6h-2.1v-0.8l2.1-0.7v-0.7c0-2.9,1.3-4.4,3.9-4.4c0.6,0,1.4,0.1,2.2,0.4
		l-0.5,1.5c-0.7-0.2-1.3-0.3-1.8-0.3c-0.7,0-1.2,0.2-1.5,0.7c-0.3,0.5-0.5,1.2-0.5,2.2v0.8h3.1V107.3z"/>
	<path fill="#FFFFFF" d="M294.1,105.7c0.5,0,1,0,1.4,0.1l-0.3,1.7c-0.5-0.1-0.9-0.2-1.3-0.2c-1,0-1.8,0.4-2.5,1.2
		c-0.7,0.8-1,1.8-1,2.9v6.4h-1.8v-12h1.5l0.2,2.2h0.1c0.4-0.8,1-1.4,1.6-1.8S293.3,105.7,294.1,105.7z"/>
	<path fill="#FFFFFF" d="M298.4,102.7c0-0.4,0.1-0.7,0.3-0.9s0.5-0.3,0.8-0.3c0.3,0,0.5,0.1,0.8,0.3s0.3,0.5,0.3,0.9
		c0,0.4-0.1,0.7-0.3,0.9c-0.2,0.2-0.5,0.3-0.8,0.3c-0.3,0-0.6-0.1-0.8-0.3C298.5,103.4,298.4,103.1,298.4,102.7z M300.4,117.9h-1.8
		v-12h1.8V117.9z"/>
	<path fill="#FFFFFF" d="M310.2,118.1c-1.8,0-3.2-0.5-4.2-1.6c-1-1.1-1.5-2.6-1.5-4.5c0-1.9,0.5-3.5,1.4-4.6c1-1.1,2.2-1.7,3.8-1.7
		c1.5,0,2.7,0.5,3.6,1.5c0.9,1,1.3,2.3,1.3,3.9v1.2h-8.3c0,1.4,0.4,2.5,1.1,3.2c0.7,0.7,1.6,1.1,2.9,1.1c1.3,0,2.6-0.3,3.8-0.8v1.6
		c-0.6,0.3-1.3,0.5-1.8,0.6S311,118.1,310.2,118.1z M309.7,107.2c-1,0-1.7,0.3-2.3,0.9c-0.6,0.6-0.9,1.5-1,2.6h6.3
		c0-1.1-0.3-2-0.8-2.6C311.4,107.5,310.6,107.2,309.7,107.2z"/>
	<path fill="#FFFFFF" d="M326.8,117.9v-7.8c0-1-0.2-1.7-0.7-2.2c-0.4-0.5-1.1-0.7-2.1-0.7c-1.3,0-2.2,0.3-2.8,1s-0.9,1.8-0.9,3.4
		v6.3h-1.8v-12h1.5l0.3,1.6h0.1c0.4-0.6,0.9-1,1.6-1.4c0.7-0.3,1.4-0.5,2.2-0.5c1.4,0,2.5,0.3,3.3,1s1.1,1.8,1.1,3.3v7.8H326.8z"/>
	<path fill="#FFFFFF" d="M341.3,116.3L341.3,116.3c-0.9,1.2-2.2,1.8-3.9,1.8c-1.6,0-2.8-0.5-3.7-1.6c-0.9-1.1-1.3-2.6-1.3-4.6
		s0.4-3.5,1.3-4.6c0.9-1.1,2.1-1.6,3.7-1.6c1.6,0,2.9,0.6,3.7,1.8h0.1l-0.1-0.9l0-0.8v-4.9h1.8v17h-1.5L341.3,116.3z M337.7,116.6
		c1.2,0,2.1-0.3,2.7-1s0.8-1.8,0.8-3.3V112c0-1.7-0.3-2.9-0.8-3.6c-0.6-0.7-1.5-1.1-2.7-1.1c-1.1,0-1.9,0.4-2.4,1.2
		c-0.6,0.8-0.8,2-0.8,3.5c0,1.5,0.3,2.7,0.8,3.5C335.8,116.2,336.6,116.6,337.7,116.6z"/>
	<path fill="#FFFFFF" d="M355.5,114.7c0,1.1-0.4,2-1.2,2.6c-0.8,0.6-2,0.9-3.5,0.9c-1.6,0-2.8-0.3-3.7-0.8v-1.7
		c0.6,0.3,1.2,0.5,1.9,0.7c0.7,0.2,1.3,0.3,1.9,0.3c0.9,0,1.7-0.2,2.2-0.5c0.5-0.3,0.8-0.8,0.8-1.4c0-0.5-0.2-0.9-0.6-1.2
		s-1.2-0.7-2.4-1.2c-1.1-0.4-1.9-0.8-2.4-1.1s-0.8-0.7-1.1-1.1c-0.2-0.4-0.3-0.9-0.3-1.4c0-1,0.4-1.8,1.2-2.3
		c0.8-0.6,1.9-0.8,3.3-0.8c1.3,0,2.6,0.3,3.8,0.8l-0.6,1.5c-1.2-0.5-2.3-0.7-3.3-0.7c-0.9,0-1.5,0.1-1.9,0.4
		c-0.4,0.3-0.7,0.6-0.7,1.1c0,0.3,0.1,0.6,0.2,0.8c0.2,0.2,0.4,0.4,0.8,0.6c0.4,0.2,1.1,0.5,2.1,0.9c1.4,0.5,2.4,1,2.9,1.6
		C355.3,113.2,355.5,113.9,355.5,114.7z"/>
	<path fill="#FFFFFF" d="M151.6,95.2h-14.8V52.7h-5.9V40.1h5.9v-2.4c0-15.9,4.1-20.9,16.1-20.9c3.6,0,12.6,1.4,12.6,1.4l-0.2,12
		c0,0-4.8-0.2-8.4-0.2c-4.2,0-5.3,2.2-5.3,7.8v2.3h13.3v12.6h-13.3V95.2z"/>
	<path fill="#FFFFFF" d="M215.7,80.2c0.2,3.3,0.7,4.6,3.6,5.2l-0.4,11.1c-7.4,0-11.1-0.8-15.7-3.9c0,0-7.9,3.9-16.2,3.9
		c-11.6,0-17.1-6.4-17.1-18.1c0-12.4,7.2-16,19.3-16.8l11.8-0.9v-3.4c0-4.7-2.1-5.9-6.5-5.9c-7.3,0-20.7,0.9-20.7,0.9L173.3,42
		c0,0,11.8-3.2,22.3-3.2c14.3,0,20,5.6,20,18.5V80.2z M190.9,71.8c-3.9,0.3-6.2,2.2-6.2,6.2c0,3.9,1.4,6.5,5.4,6.5
		c4.7,0,10.8-1.8,10.8-1.8V70.9L190.9,71.8z"/>
	<path fill="#FFFFFF" d="M268,41.2l-0.4,11.7c0,0-8.7-0.9-12.9-0.9c-10.6,0-12.6,4.1-12.6,15.1c0,12.3,2.1,16.2,12.7,16.2
		c4.2,0,12.8-0.9,12.8-0.9l0.4,11.8c0,0-11.8,2.3-17.9,2.3c-16.4,0-22.9-8.7-22.9-29.4c0-19.5,6.8-28.3,23.2-28.3
		C256.7,38.8,268,41.2,268,41.2z"/>
	<rect x="278.9" y="40.1" fill="#FFFFFF" width="14.8" height="55"/>
	<path fill="#FFFFFF" d="M307.3,95.2v-55h14.6v3.1c0,0,7.5-4.4,13.8-4.4c15.4,0,19.4,9.7,19.4,26.5v29.8h-14.8V65.8
		c0-8.4-1.1-13.8-8.3-13.8c-5.2,0-10,2-10,2v41.2H307.3z"/>
	<path fill="#FFFFFF" d="M365.4,105.2c0-5.1,2.4-8.8,7.9-13.1c-2.4-1.7-4.1-5-4.1-8.4c0-2.8,4.3-8.8,4.3-8.8
		c-3.9-2.8-7.5-6.8-7.5-16.4c0-14.2,10.2-19.5,23.1-19.5c4.8,0,11.1,1.4,11.1,1.4l17.7-0.6v11.8l-8.3-0.7c1,1.5,2.4,4.3,2.4,7.5
		c0,15.4-8.1,19.4-23.2,19.4c-1.2,0-3.5-0.2-4.5-0.4c0,0-1.1,2.9-1.1,4.3c0,2.9,1.3,3.5,10.7,3.6c18.7,0.1,24,4.3,24,16.6
		c0,13.4-11.9,18.5-26.1,18.5C375.8,120.5,365.4,117.5,365.4,105.2z M382.9,97.4c-1.9,1.9-3,3.5-3,6.3c0,3.2,3.9,4.7,12.1,4.7
		c7.2,0,11.1-1.5,11.1-5.5c0-4.2-2.2-4.6-10.3-4.7C389.7,98.1,382.9,97.4,382.9,97.4z M397.6,58.5c0-5.2-2.4-8-8.4-8
		c-5.9,0-8.5,2.9-8.5,8c0,5.2,2.5,8.1,8.5,8.1C395.2,66.6,397.6,63.7,397.6,58.5z"/>
	<ellipse id="shape_5_" fill="#FFFFFF" cx="286.3" cy="25.7" rx="8" ry="8"/>
</g>
<g id="FacingIcon">
	<path id="shape_2_" fill="#FFFFFF" d="M17.9,78.4l-9.5,9.5C-3.1,65.9,0.4,38.1,18.8,19.7c11-11,25.6-17,41.1-17
		c10.3,0,20.2,2.7,28.9,7.7c-3.9,2-6.9,5.6-8.1,9.9c-6.4-3.3-13.5-5-20.8-5c-12.2,0-23.6,4.7-32.2,13.3C14.3,42,11,61.9,17.9,78.4z
		 M110.5,31.9c-2,3.9-5.6,6.9-10,8.1c8.8,17.1,6,38.7-8.3,53c-8.6,8.6-20.1,13.3-32.2,13.3c-8.9,0-17.4-2.5-24.7-7.3L66,68.4l0,18.8
		c0,4.7,3.8,8.5,8.5,8.5s8.5-3.8,8.5-8.5l0-49.4l-49.5,0c-4.7,0-8.5,3.8-8.5,8.5c0,4.7,3.8,8.5,8.5,8.5l18.8,0L12.6,94.6
		c1.8,2.6,3.9,5.1,6.2,7.4c11,11,25.6,17,41.1,17c15.5,0,30.2-6,41.1-17C120.1,83,123.2,54.1,110.5,31.9z"/>
	<ellipse id="shape_1_" fill="#FFFFFF" cx="96.2" cy="24.6" rx="9.9" ry="9.9"/>
</g>
</svg>
